<?xml version="1.0" encoding="UTF-8" standalone="no"?>
<!-- Generator: Adobe Illustrator 24.1.0, SVG Export Plug-In . SVG Version: 6.00 Build 0)  -->

<svg
   version="1.1"
   id="Layer_1"
   x="0px"
   y="0px"
   viewBox="0 0 57 57"
   style="enable-background:new 0 0 57 57;"
   xml:space="preserve"
   sodipodi:docname="logo.svg"
   inkscape:version="1.4.2 (ebf0e940d0, 2025-05-08)"
   xmlns:inkscape="http://www.inkscape.org/namespaces/inkscape"
   xmlns:sodipodi="http://sodipodi.sourceforge.net/DTD/sodipodi-0.dtd"
   xmlns="http://www.w3.org/2000/svg"
   xmlns:svg="http://www.w3.org/2000/svg"><defs
   id="defs5" /><sodipodi:namedview
   id="namedview5"
   pagecolor="#ffffff"
   bordercolor="#000000"
   borderopacity="0.25"
   inkscape:showpageshadow="2"
   inkscape:pageopacity="0.0"
   inkscape:pagecheckerboard="0"
   inkscape:deskcolor="#d1d1d1"
   inkscape:zoom="4.9591482"
   inkscape:cx="24.802646"
   inkscape:cy="50.512707"
   inkscape:window-width="1904"
   inkscape:window-height="995"
   inkscape:window-x="8"
   inkscape:window-y="40"
   inkscape:window-maximized="0"
   inkscape:current-layer="Layer_1" />
<style
   type="text/css"
   id="style1">
	.st0{fill:#5856E0;}
	.st1{fill:#FFFFFF;}
	.st2{fill:none;stroke:#FFFFFF;stroke-width:2.3769;stroke-miterlimit:10;}
</style>
<g
   id="g5">
	<g
   id="Layer_1_1_">
		<circle
   class="st0"
   cx="28.5"
   cy="28.5"
   r="28.5"
   id="circle1"
   style="fill:#d56a3b;fill-opacity:1" />
	</g><g
   id="Layer_1_1_-6"
   transform="translate(-0.00979567)">
		<path
   class="st0"
   id="circle1-2"
   style="fill:#00a925;fill-opacity:1"
   sodipodi:type="arc"
   sodipodi:cx="-10.233653"
   sodipodi:cy="38.984364"
   sodipodi:rx="28.5"
   sodipodi:ry="28.5"
   sodipodi:start="0"
   sodipodi:end="1.8239711"
   sodipodi:arc-type="slice"
   d="M 18.266347,38.984364 A 28.5,28.5 0 0 1 7.2133898,61.519907 28.5,28.5 0 0 1 -17.372298,66.575843 l 7.138645,-27.591479 z"
   transform="rotate(-59.624651)" />
	</g><g
   id="Layer_1_1_-3"
   transform="translate(0.1,-0.2)">
		<path
   class="st0"
   id="circle1-6"
   style="fill:#ede1ae;fill-opacity:1"
   sodipodi:type="arc"
   sodipodi:cx="40.36887"
   sodipodi:cy="0.21905778"
   sodipodi:rx="28.5"
   sodipodi:ry="28.5"
   sodipodi:start="0"
   sodipodi:end="3.1360483"
   sodipodi:arc-type="slice"
   d="M 68.86887,0.21905778 A 28.5,28.5 0 0 1 40.447877,28.718948 28.5,28.5 0 0 1 11.869308,0.37707105 L 40.36887,0.21905778 Z"
   transform="rotate(45)" />
	</g>
	<g
   id="Layer_2_1_">
		<g
   id="g4">
			<polygon
   class="st1"
   points="32.5,14.8 17.3,29.9 17.3,39.6 27,39.6 42.1,24.4    "
   id="polygon1" />
			<line
   class="st2"
   x1="25"
   y1="31.9"
   x2="10.6"
   y2="46.3"
   id="line1" />
			<line
   class="st2"
   x1="33"
   y1="10.7"
   x2="46.6"
   y2="24.3"
   id="line2" />
			<line
   class="st2"
   x1="39.8"
   y1="17.5"
   x2="44.6"
   y2="12.6"
   id="line3" />
			<line
   class="st2"
   x1="40.9"
   y1="8.9"
   x2="48.3"
   y2="16.3"
   id="line4" />
			<polygon
   class="st0"
   points="39.3,24.5 36.5,21.7 35.3,20.4 32.5,17.6 21.8,28.3 28.6,28.3 28.6,35.2    "
   id="polygon4" />
		</g>
	</g>
</g>
</svg>
